# xmcd
#
# Track frame offsets:
# 150
# 39082
# 74765
# 115069
# 152045
# 169280
# 206833
# 235506
# 273237
#
# Disc length: 4136 seconds
#
#
# Revision: 0
# Processed by: cddbd v1.5.2PL0 Copyright (c) Steve Scherf et al.
# Submitted via: FreeRIP 2.943 
#
DISCID=77102609
DTITLE=across tundras - western sky ride
DYEAR=2008
DGENRE=Psychedelic Rock
TTITLE0=carrion crow
TTITLE1=thunderclap stomp
TTITLE2=low the daystar hangs
TTITLE3=badlands blues (dyin' days)
TTITLE4=follow me to the san luis
TTITLE5=song of the sullen plains
TTITLE6=run with the wolves
TTITLE7=two black clouds
TTITLE8=gallows pole
EXTD=z
EXTT0=
EXTT1=
EXTT2=
EXTT3=
EXTT4=
EXTT5=
EXTT6=
EXTT7=
EXTT8=
PLAYORDER=
